<svg xmlns="http://www.w3.org/2000/svg" fill="none" viewBox="0 0 159 159" height="159" width="159">
<path fill="#6769F3" d="M15.2904 133.944L13.89 128.438C11.4072 127.388 8.86696 126.48 6.28146 125.716L6.10471 128.275L5.38789 125.456C2.18141 124.542 0 124.14 0 124.14C0 124.14 2.94583 135.311 9.12654 143.851L16.3276 145.112L10.7333 145.917C11.5108 146.849 12.3463 147.732 13.2349 148.561C22.2251 156.88 32.2385 160.698 35.6004 157.086C38.9623 153.475 34.3997 143.803 25.4095 135.484C22.6225 132.905 19.1215 130.835 15.6168 129.206L15.2904 133.944Z"></path>
<path fill="#83B5FF" d="M28.6078 127.963L30.2639 122.528C28.6825 120.35 26.9792 118.263 25.162 116.277L23.684 118.376L24.5319 115.593C22.2604 113.159 20.6015 111.691 20.6015 111.691C20.6015 111.691 17.3323 122.772 18.1947 133.268L23.7053 138.059L18.4985 135.865C18.6806 137.064 18.9383 138.25 19.2699 139.417C22.6525 151.173 29.2454 159.601 33.9955 158.242C38.7455 156.884 39.8543 146.253 36.4717 134.497C35.4231 130.853 33.499 127.277 31.3436 124.076L28.6078 127.963Z"></path>
<path fill="#E6E6E6" d="M110.95 37.6672H110.076V13.809C110.076 11.9956 109.718 10.1999 109.022 8.52453C108.326 6.84915 107.305 5.32685 106.019 4.04457C104.733 2.76228 103.206 1.74512 101.526 1.05115C99.8456 0.35718 98.0445 0 96.2257 0H45.5259C41.8525 0 38.3297 1.45487 35.7322 4.04457C33.1348 6.63426 31.6755 10.1466 31.6755 13.809V144.699C31.6755 146.513 32.0338 148.308 32.7298 149.984C33.4259 151.659 34.4461 153.181 35.7322 154.464C37.0183 155.746 38.5452 156.763 40.2256 157.457C41.906 158.151 43.707 158.508 45.5259 158.508H96.2257C99.899 158.508 103.422 157.053 106.019 154.464C108.617 151.874 110.076 148.361 110.076 144.699V54.6499H110.949L110.95 37.6672Z"></path>
<path fill="white" d="M96.7843 3.59131H90.1669C90.4712 4.33527 90.5874 5.14245 90.5051 5.94172C90.4229 6.741 90.1447 7.50783 89.6952 8.17467C89.2456 8.84152 88.6385 9.38789 87.9273 9.76566C87.216 10.1434 86.4225 10.341 85.6166 10.341H56.5713C55.7655 10.3409 54.972 10.1433 54.2608 9.76551C53.5497 9.38771 52.9426 8.84133 52.4931 8.1745C52.0436 7.50767 51.7655 6.74086 51.6832 5.94162C51.601 5.14238 51.7172 4.33524 52.0215 3.59131H45.8404C43.0972 3.59131 40.4663 4.67779 38.5266 6.61175C36.5868 8.54571 35.4971 11.1687 35.4971 13.9037V144.604C35.4971 147.339 36.5868 149.962 38.5266 151.896C40.4663 153.83 43.0972 154.916 45.8404 154.916H96.7843C99.5275 154.916 102.158 153.83 104.098 151.896C106.038 149.962 107.128 147.339 107.128 144.604V13.9035C107.128 11.1685 106.038 8.54559 104.098 6.61168C102.158 4.67776 99.5275 3.59131 96.7843 3.59131Z"></path>
<path fill="#83B5FF" d="M64.8209 55.6557C64.8207 54.7421 65.062 53.8446 65.5203 53.0535C65.9786 52.2624 66.6378 51.6056 67.4316 51.1492C66.6382 50.6923 65.7381 50.4518 64.8219 50.4517C63.9056 50.4516 63.0055 50.6919 62.212 51.1486C61.4185 51.6053 60.7595 52.2622 60.3014 53.0533C59.8432 53.8444 59.6021 54.7418 59.6021 55.6553C59.6021 56.5688 59.8432 57.4662 60.3014 58.2573C60.7595 59.0484 61.4185 59.7054 62.212 60.1621C63.0055 60.6187 63.9056 60.8591 64.8219 60.859C65.7381 60.8589 66.6382 60.6183 67.4316 60.1615C66.6378 59.7052 65.9786 59.0485 65.5203 58.2575C65.062 57.4666 64.8208 56.5691 64.8209 55.6557Z"></path>
<path fill="#83B5FF" d="M71.3822 55.6557C71.382 54.7421 71.6232 53.8445 72.0815 53.0534C72.5398 52.2623 73.1991 51.6056 73.9929 51.1492C73.1995 50.6923 72.2994 50.4518 71.3832 50.4517C70.4669 50.4516 69.5668 50.6919 68.7733 51.1486C67.9798 51.6053 67.3208 52.2622 66.8627 53.0533C66.4045 53.8444 66.1633 54.7418 66.1633 55.6553C66.1633 56.5688 66.4045 57.4662 66.8627 58.2573C67.3208 59.0484 67.9798 59.7054 68.7733 60.1621C69.5668 60.6187 70.4669 60.8591 71.3832 60.859C72.2994 60.8589 73.1995 60.6183 73.9929 60.1615C73.1991 59.7052 72.5399 59.0485 72.0816 58.2575C71.6233 57.4666 71.3821 56.5691 71.3822 55.6557Z"></path>
<path fill="#6769F3" d="M77.7945 60.859C80.677 60.859 83.0137 58.5292 83.0137 55.6553C83.0137 52.7814 80.677 50.4517 77.7945 50.4517C74.9119 50.4517 72.5752 52.7814 72.5752 55.6553C72.5752 58.5292 74.9119 60.859 77.7945 60.859Z"></path>
<path fill="#CCCCCC" d="M86.5171 71.9086H56.0982C55.8086 71.9083 55.5309 71.7934 55.3262 71.5893C55.1214 71.3851 55.0062 71.1083 55.0059 70.8196V40.4914C55.0062 40.2027 55.1214 39.9259 55.3262 39.7217C55.5309 39.5175 55.8086 39.4027 56.0982 39.4023H86.5171C86.8067 39.4027 87.0844 39.5175 87.2891 39.7217C87.4939 39.9259 87.6091 40.2027 87.6094 40.4914V70.8196C87.6091 71.1083 87.4939 71.3851 87.2891 71.5893C87.0844 71.7934 86.8067 71.9083 86.5171 71.9086ZM56.0982 39.8382C55.9244 39.8384 55.7578 39.9073 55.635 40.0298C55.5121 40.1523 55.443 40.3184 55.4428 40.4916V70.8198C55.443 70.993 55.5121 71.1591 55.635 71.2816C55.7578 71.4041 55.9244 71.473 56.0982 71.4732H86.5171C86.6909 71.473 86.8575 71.4041 86.9803 71.2816C87.1032 71.1591 87.1723 70.993 87.1725 70.8198V40.4916C87.1723 40.3184 87.1032 40.1523 86.9803 40.0298C86.8575 39.9073 86.6909 39.8384 86.5171 39.8382H56.0982Z"></path>
<path fill="#CCCCCC" d="M93.3093 95.1562H46.6558V95.5919H93.3093V95.1562Z"></path>
<path fill="#6769F3" d="M48.1291 92.4364C48.9428 92.4364 49.6024 91.7788 49.6024 90.9675C49.6024 90.1562 48.9428 89.4985 48.1291 89.4985C47.3154 89.4985 46.6558 90.1562 46.6558 90.9675C46.6558 91.7788 47.3154 92.4364 48.1291 92.4364Z"></path>
<path fill="#CCCCCC" d="M93.3093 109.845H46.6558V110.281H93.3093V109.845Z"></path>
<path fill="#6769F3" d="M48.1291 107.125C48.9428 107.125 49.6024 106.468 49.6024 105.656C49.6024 104.845 48.9428 104.188 48.1291 104.188C47.3154 104.188 46.6558 104.845 46.6558 105.656C46.6558 106.468 47.3154 107.125 48.1291 107.125Z"></path>
<path fill="#6769F3" d="M92.4553 126.572H77.7116C77.4569 126.572 77.2127 126.471 77.0326 126.291C76.8525 126.112 76.7513 125.868 76.751 125.614V120.462C76.7513 120.208 76.8525 119.965 77.0326 119.785C77.2127 119.606 77.4569 119.505 77.7116 119.504H92.4553C92.71 119.505 92.9542 119.606 93.1343 119.785C93.3144 119.965 93.4157 120.208 93.4159 120.462V125.614C93.4157 125.868 93.3144 126.112 93.1343 126.291C92.9542 126.471 92.71 126.572 92.4553 126.572Z"></path>
<path fill="#6769F3" d="M52.935 92.4364C53.7487 92.4364 54.4084 91.7788 54.4084 90.9675C54.4084 90.1562 53.7487 89.4985 52.935 89.4985C52.1213 89.4985 51.4617 90.1562 51.4617 90.9675C51.4617 91.7788 52.1213 92.4364 52.935 92.4364Z"></path>
<path fill="#6769F3" d="M57.7409 92.4364C58.5546 92.4364 59.2143 91.7788 59.2143 90.9675C59.2143 90.1562 58.5546 89.4985 57.7409 89.4985C56.9272 89.4985 56.2676 90.1562 56.2676 90.9675C56.2676 91.7788 56.9272 92.4364 57.7409 92.4364Z"></path>
<path fill="#6769F3" d="M52.935 107.125C53.7487 107.125 54.4084 106.468 54.4084 105.656C54.4084 104.845 53.7487 104.188 52.935 104.188C52.1213 104.188 51.4617 104.845 51.4617 105.656C51.4617 106.468 52.1213 107.125 52.935 107.125Z"></path>
<path fill="#6769F3" d="M57.7409 107.125C58.5546 107.125 59.2143 106.468 59.2143 105.656C59.2143 104.845 58.5546 104.188 57.7409 104.188C56.9272 104.188 56.2676 104.845 56.2676 105.656C56.2676 106.468 56.9272 107.125 57.7409 107.125Z"></path>
<path fill="#FFB8B8" d="M120.539 104.172C120.644 104.219 120.745 104.275 120.841 104.339L130.415 100.265L130.757 97.7504L134.582 97.7271L134.356 103.494L121.719 106.826C121.693 106.914 121.661 107 121.624 107.084C121.441 107.472 121.147 107.798 120.779 108.021C120.411 108.244 119.985 108.353 119.555 108.336C119.125 108.318 118.71 108.174 118.361 107.921C118.013 107.669 117.747 107.32 117.597 106.917C117.447 106.515 117.42 106.077 117.519 105.659C117.618 105.242 117.838 104.862 118.152 104.569C118.467 104.276 118.861 104.081 119.286 104.011C119.71 103.94 120.147 103.996 120.539 104.172Z"></path>
<path fill="#FFB8B8" d="M135.974 156.434H133.357L132.112 146.37L135.974 146.37L135.974 156.434Z"></path>
<path fill="#2F2E41" d="M131.487 155.688H136.535V158.857H128.31C128.31 158.017 128.644 157.211 129.24 156.616C129.836 156.022 130.645 155.688 131.487 155.688Z"></path>
<path fill="#FFB8B8" d="M146.152 155.697L143.547 155.953L141.319 146.059L145.163 145.681L146.152 155.697Z"></path>
<path fill="#2F2E41" d="M141.614 155.394L146.637 154.9L146.948 158.053L138.763 158.857C138.722 158.443 138.763 158.025 138.884 157.627C139.006 157.229 139.204 156.858 139.469 156.537C139.734 156.215 140.059 155.949 140.427 155.752C140.795 155.556 141.199 155.434 141.614 155.394Z"></path>
<path fill="#FFB8B8" d="M136.702 87.0757C139.598 87.0757 141.945 84.7354 141.945 81.8484C141.945 78.9614 139.598 76.6211 136.702 76.6211C133.807 76.6211 131.459 78.9614 131.459 81.8484C131.459 84.7354 133.807 87.0757 136.702 87.0757Z"></path>
<path fill="#2F2E41" d="M132.772 154.399C132.547 154.399 132.329 154.321 132.157 154.177C131.984 154.033 131.868 153.833 131.829 153.612C130.475 146.115 126.047 121.601 125.941 120.922C125.939 120.907 125.938 120.891 125.938 120.875V119.047C125.938 118.981 125.958 118.916 125.997 118.862L126.582 118.045C126.61 118.006 126.647 117.973 126.689 117.95C126.731 117.927 126.778 117.914 126.826 117.912C130.161 117.756 141.083 117.299 141.61 117.956C142.14 118.617 141.953 120.618 141.91 121.013L141.912 121.054L146.819 152.339C146.857 152.588 146.795 152.843 146.647 153.047C146.499 153.252 146.275 153.39 146.026 153.432L142.961 153.935C142.733 153.971 142.499 153.925 142.302 153.804C142.105 153.684 141.958 153.496 141.888 153.277C140.94 150.257 137.762 140.099 136.661 136.168C136.654 136.143 136.638 136.122 136.616 136.107C136.595 136.093 136.569 136.087 136.543 136.091C136.517 136.095 136.494 136.107 136.477 136.127C136.46 136.147 136.451 136.172 136.451 136.198C136.506 139.945 136.639 149.504 136.685 152.806L136.69 153.162C136.692 153.402 136.604 153.635 136.442 153.814C136.28 153.993 136.057 154.105 135.817 154.127L132.861 154.395C132.831 154.398 132.801 154.399 132.772 154.399Z"></path>
<path fill="#6769F3" d="M133.375 89.1313C132.46 89.6736 131.912 90.6702 131.598 91.6842C131.017 93.5616 130.666 95.5027 130.556 97.4645L130.224 103.339L126.113 118.911C129.676 121.917 131.731 121.234 136.526 118.775C141.322 116.317 141.87 119.595 141.87 119.595L142.829 106.345L144.199 91.8654C143.891 91.4961 143.543 91.1625 143.161 90.8706C141.895 89.8888 140.421 89.2063 138.852 88.8747C137.283 88.5431 135.658 88.5709 134.101 88.9561L133.375 89.1313Z"></path>
<path fill="#FFB8B8" d="M132.04 107.317C132.15 107.358 132.257 107.408 132.36 107.467L141.827 102.742L141.984 100.183L145.889 99.9146L146.098 105.749L133.447 109.92C133.344 110.362 133.108 110.762 132.771 111.067C132.434 111.372 132.012 111.567 131.562 111.627C131.111 111.687 130.652 111.609 130.247 111.403C129.841 111.196 129.509 110.872 129.293 110.473C129.077 110.073 128.988 109.618 129.038 109.167C129.088 108.716 129.275 108.291 129.573 107.949C129.871 107.606 130.267 107.362 130.707 107.249C131.148 107.136 131.613 107.16 132.04 107.317Z"></path>
<path fill="#6769F3" d="M144.13 91.9318C146.459 92.7514 146.87 101.631 146.87 101.631C144.13 100.129 140.841 102.587 140.841 102.587C140.841 102.587 140.156 100.265 139.334 97.2599C139.086 96.4146 139.056 95.5204 139.248 94.6605C139.439 93.8007 139.846 93.0032 140.43 92.3422C140.43 92.3422 141.801 91.1116 144.13 91.9318Z"></path>
<path fill="#2F2E41" d="M141.403 83.2312C140.75 82.7101 139.859 83.6572 139.859 83.6572L139.336 78.9678C139.336 78.9678 136.07 79.3579 133.98 78.8377C131.889 78.3174 131.563 80.7265 131.563 80.7265C131.455 79.7534 131.433 78.7727 131.497 77.7957C131.628 76.6233 133.327 75.451 136.331 74.6694C139.336 73.8877 140.904 77.2746 140.904 77.2746C142.995 78.3166 142.057 83.7523 141.403 83.2312Z"></path>
</svg>
